{
    "asset" : {
        "generator" : "Khronos glTF Blender I/O v1.6.16",
        "version" : "2.0"
    },
    "scene" : 0,
    "scenes" : [
        {
            "name" : "Scene",
            "nodes" : [
                0
            ]
        }
    ],
    "nodes" : [
        {
            "mesh" : 0,
            "name" : "Plane",
            "scale" : [
                8.514540672302246,
                8.514540672302246,
                8.514540672302246
            ],
            "translation" : [
                -15.944997787475586,
                0,
                0
            ]
        }
    ],
    "materials" : [
        {
            "doubleSided" : true,
            "name" : "Material.001",
            "pbrMetallicRoughness" : {
                "baseColorFactor" : [
                    0.01998862624168396,
                    0.01954619400203228,
                    0.023650581017136574,
                    1
                ],
                "metallicFactor" : 0.9170984625816345,
                "roughnessFactor" : 0.5
            }
        },
        {
            "doubleSided" : true,
            "name" : "Metal",
            "pbrMetallicRoughness" : {
                "baseColorFactor" : [
                    0.43854326009750366,
                    0.43854326009750366,
                    0.43854326009750366,
                    1
                ],
                "roughnessFactor" : 0.5
            }
        },
        {
            "doubleSided" : true,
            "name" : "lab",
            "pbrMetallicRoughness" : {
                "baseColorFactor" : [
                    0.800000011920929,
                    0.800000011920929,
                    0.800000011920929,
                    1
                ],
                "metallicFactor" : 0,
                "roughnessFactor" : 0.12694299221038818
            }
        },
        {
            "doubleSided" : true,
            "name" : "Material",
            "pbrMetallicRoughness" : {
                "baseColorFactor" : [
                    0.2956916391849518,
                    0.2956916391849518,
                    0.2956916391849518,
                    1
                ],
                "metallicFactor" : 0,
                "roughnessFactor" : 0.5
            }
        }
    ],
    "meshes" : [
        {
            "name" : "Plane",
            "primitives" : [
                {
                    "attributes" : {
                        "POSITION" : 0,
                        "NORMAL" : 1,
                        "TEXCOORD_0" : 2
                    },
                    "indices" : 3,
                    "material" : 0
                },
                {
                    "attributes" : {
                        "POSITION" : 4,
                        "NORMAL" : 5,
                        "TEXCOORD_0" : 6
                    },
                    "indices" : 7,
                    "material" : 1
                },
                {
                    "attributes" : {
                        "POSITION" : 8,
                        "NORMAL" : 9,
                        "TEXCOORD_0" : 10
                    },
                    "indices" : 11,
                    "material" : 2
                },
                {
                    "attributes" : {
                        "POSITION" : 12,
                        "NORMAL" : 13,
                        "TEXCOORD_0" : 14
                    },
                    "indices" : 15,
                    "material" : 3
                }
            ]
        }
    ],
    "accessors" : [
        {
            "bufferView" : 0,
            "componentType" : 5126,
            "count" : 231,
            "max" : [
                2.4462013244628906,
                0.004302491433918476,
                0.8360484838485718
            ],
            "min" : [
                -2.5155177116394043,
                -1.001136302947998,
                -0.8360484838485718
            ],
            "type" : "VEC3"
        },
        {
            "bufferView" : 1,
            "componentType" : 5126,
            "count" : 231,
            "type" : "VEC3"
        },
        {
            "bufferView" : 2,
            "componentType" : 5126,
            "count" : 231,
            "type" : "VEC2"
        },
        {
            "bufferView" : 3,
            "componentType" : 5123,
            "count" : 708,
            "type" : "SCALAR"
        },
        {
            "bufferView" : 4,
            "componentType" : 5126,
            "count" : 173,
            "max" : [
                1.0395445823669434,
                0.0018048707861453295,
                0.8360484838485718
            ],
            "min" : [
                -2.5155177116394043,
                0,
                -0.8360484838485718
            ],
            "type" : "VEC3"
        },
        {
            "bufferView" : 5,
            "componentType" : 5126,
            "count" : 173,
            "type" : "VEC3"
        },
        {
            "bufferView" : 6,
            "componentType" : 5126,
            "count" : 173,
            "type" : "VEC2"
        },
        {
            "bufferView" : 7,
            "componentType" : 5123,
            "count" : 420,
            "type" : "SCALAR"
        },
        {
            "bufferView" : 8,
            "componentType" : 5126,
            "count" : 8754,
            "max" : [
                1.021791934967041,
                0.000669478380586952,
                0.6401547193527222
            ],
            "min" : [
                0.8745866417884827,
                -0.0009292128961533308,
                -0.6613057255744934
            ],
            "type" : "VEC3"
        },
        {
            "bufferView" : 9,
            "componentType" : 5126,
            "count" : 8754,
            "type" : "VEC3"
        },
        {
            "bufferView" : 10,
            "componentType" : 5126,
            "count" : 8754,
            "type" : "VEC2"
        },
        {
            "bufferView" : 11,
            "componentType" : 5123,
            "count" : 10524,
            "type" : "SCALAR"
        },
        {
            "bufferView" : 12,
            "componentType" : 5126,
            "count" : 15,
            "max" : [
                2.1370701789855957,
                0,
                0.823176383972168
            ],
            "min" : [
                1.0395444631576538,
                0,
                -0.823176383972168
            ],
            "type" : "VEC3"
        },
        {
            "bufferView" : 13,
            "componentType" : 5126,
            "count" : 15,
            "type" : "VEC3"
        },
        {
            "bufferView" : 14,
            "componentType" : 5126,
            "count" : 15,
            "type" : "VEC2"
        },
        {
            "bufferView" : 15,
            "componentType" : 5123,
            "count" : 48,
            "type" : "SCALAR"
        }
    ],
    "bufferViews" : [
        {
            "buffer" : 0,
            "byteLength" : 2772,
            "byteOffset" : 0
        },
        {
            "buffer" : 0,
            "byteLength" : 2772,
            "byteOffset" : 2772
        },
        {
            "buffer" : 0,
            "byteLength" : 1848,
            "byteOffset" : 5544
        },
        {
            "buffer" : 0,
            "byteLength" : 1416,
            "byteOffset" : 7392
        },
        {
            "buffer" : 0,
            "byteLength" : 2076,
            "byteOffset" : 8808
        },
        {
            "buffer" : 0,
            "byteLength" : 2076,
            "byteOffset" : 10884
        },
        {
            "buffer" : 0,
            "byteLength" : 1384,
            "byteOffset" : 12960
        },
        {
            "buffer" : 0,
            "byteLength" : 840,
            "byteOffset" : 14344
        },
        {
            "buffer" : 0,
            "byteLength" : 105048,
            "byteOffset" : 15184
        },
        {
            "buffer" : 0,
            "byteLength" : 105048,
            "byteOffset" : 120232
        },
        {
            "buffer" : 0,
            "byteLength" : 70032,
            "byteOffset" : 225280
        },
        {
            "buffer" : 0,
            "byteLength" : 21048,
            "byteOffset" : 295312
        },
        {
            "buffer" : 0,
            "byteLength" : 180,
            "byteOffset" : 316360
        },
        {
            "buffer" : 0,
            "byteLength" : 180,
            "byteOffset" : 316540
        },
        {
            "buffer" : 0,
            "byteLength" : 120,
            "byteOffset" : 316720
        },
        {
            "buffer" : 0,
            "byteLength" : 96,
            "byteOffset" : 316840
        }
    ],
    "buffers" : [
        {
            "byteLength" : 316936,
            "uri" : "Room.bin"
        }
    ]
}
