{
    "asset" : {
        "generator" : "Khronos glTF Blender I/O v1.6.16",
        "version" : "2.0"
    },
    "scene" : 0,
    "scenes" : [
        {
            "name" : "Scene",
            "nodes" : [
                0
            ]
        }
    ],
    "nodes" : [
        {
            "mesh" : 0,
            "name" : "Cube.005",
            "rotation" : [
                0,
                1,
                0,
                -1.6292068494294654e-07
            ],
            "translation" : [
                -7.263207912445068,
                0.29387354850769043,
                0.0012903772294521332
            ]
        }
    ],
    "materials" : [
        {
            "doubleSided" : true,
            "name" : "Plastic",
            "pbrMetallicRoughness" : {
                "baseColorFactor" : [
                    0,
                    0,
                    0,
                    1
                ],
                "metallicFactor" : 0,
                "roughnessFactor" : 0.5
            }
        },
        {
            "doubleSided" : true,
            "emissiveFactor" : [
                1,
                1,
                1
            ],
            "name" : "Light",
            "pbrMetallicRoughness" : {
                "baseColorFactor" : [
                    0.800000011920929,
                    0.800000011920929,
                    0.800000011920929,
                    1
                ],
                "metallicFactor" : 0,
                "roughnessFactor" : 0.5
            }
        },
        {
            "doubleSided" : true,
            "name" : "Screen",
            "pbrMetallicRoughness" : {
                "baseColorFactor" : [
                    0.011087587103247643,
                    0.011087587103247643,
                    0.011087587103247643,
                    1
                ],
                "metallicFactor" : 0.062176164239645004,
                "roughnessFactor" : 0
            }
        }
    ],
    "meshes" : [
        {
            "name" : "Cube.006",
            "primitives" : [
                {
                    "attributes" : {
                        "POSITION" : 0,
                        "NORMAL" : 1,
                        "TEXCOORD_0" : 2
                    },
                    "indices" : 3,
                    "material" : 0
                },
                {
                    "attributes" : {
                        "POSITION" : 4,
                        "NORMAL" : 5,
                        "TEXCOORD_0" : 6
                    },
                    "indices" : 7,
                    "material" : 1
                },
                {
                    "attributes" : {
                        "POSITION" : 8,
                        "NORMAL" : 9,
                        "TEXCOORD_0" : 10
                    },
                    "indices" : 11,
                    "material" : 2
                }
            ]
        }
    ],
    "accessors" : [
        {
            "bufferView" : 0,
            "componentType" : 5126,
            "count" : 5697,
            "max" : [
                0.3254765272140503,
                1.2156840562820435,
                0.33374106884002686
            ],
            "min" : [
                -0.1756061613559723,
                -0.6321821808815002,
                -0.3289562463760376
            ],
            "type" : "VEC3"
        },
        {
            "bufferView" : 1,
            "componentType" : 5126,
            "count" : 5697,
            "type" : "VEC3"
        },
        {
            "bufferView" : 2,
            "componentType" : 5126,
            "count" : 5697,
            "type" : "VEC2"
        },
        {
            "bufferView" : 3,
            "componentType" : 5123,
            "count" : 16542,
            "type" : "SCALAR"
        },
        {
            "bufferView" : 4,
            "componentType" : 5126,
            "count" : 14001,
            "max" : [
                0.31803596019744873,
                1.0781835317611694,
                0.23463627696037292
            ],
            "min" : [
                -0.1693035364151001,
                0.2950277328491211,
                -0.21658185124397278
            ],
            "type" : "VEC3"
        },
        {
            "bufferView" : 5,
            "componentType" : 5126,
            "count" : 14001,
            "type" : "VEC3"
        },
        {
            "bufferView" : 6,
            "componentType" : 5126,
            "count" : 14001,
            "type" : "VEC2"
        },
        {
            "bufferView" : 7,
            "componentType" : 5123,
            "count" : 28572,
            "type" : "SCALAR"
        },
        {
            "bufferView" : 8,
            "componentType" : 5126,
            "count" : 48,
            "max" : [
                0.1201031431555748,
                1.209000587463379,
                0.32395413517951965
            ],
            "min" : [
                0.1201031431555748,
                0.7698118686676025,
                -0.31916946172714233
            ],
            "type" : "VEC3"
        },
        {
            "bufferView" : 9,
            "componentType" : 5126,
            "count" : 48,
            "type" : "VEC3"
        },
        {
            "bufferView" : 10,
            "componentType" : 5126,
            "count" : 48,
            "type" : "VEC2"
        },
        {
            "bufferView" : 11,
            "componentType" : 5123,
            "count" : 138,
            "type" : "SCALAR"
        }
    ],
    "bufferViews" : [
        {
            "buffer" : 0,
            "byteLength" : 68364,
            "byteOffset" : 0
        },
        {
            "buffer" : 0,
            "byteLength" : 68364,
            "byteOffset" : 68364
        },
        {
            "buffer" : 0,
            "byteLength" : 45576,
            "byteOffset" : 136728
        },
        {
            "buffer" : 0,
            "byteLength" : 33084,
            "byteOffset" : 182304
        },
        {
            "buffer" : 0,
            "byteLength" : 168012,
            "byteOffset" : 215388
        },
        {
            "buffer" : 0,
            "byteLength" : 168012,
            "byteOffset" : 383400
        },
        {
            "buffer" : 0,
            "byteLength" : 112008,
            "byteOffset" : 551412
        },
        {
            "buffer" : 0,
            "byteLength" : 57144,
            "byteOffset" : 663420
        },
        {
            "buffer" : 0,
            "byteLength" : 576,
            "byteOffset" : 720564
        },
        {
            "buffer" : 0,
            "byteLength" : 576,
            "byteOffset" : 721140
        },
        {
            "buffer" : 0,
            "byteLength" : 384,
            "byteOffset" : 721716
        },
        {
            "buffer" : 0,
            "byteLength" : 276,
            "byteOffset" : 722100
        }
    ],
    "buffers" : [
        {
            "byteLength" : 722376,
            "uri" : "Start.bin"
        }
    ]
}
